<svg xmlns="http://www.w3.org/2000/svg" enable-background="new 0 0 24 24" viewBox="0 0 24 24"><path d="M11.75,11h0.5C13.215,11,14,10.215,14,9.25v-3.5C14,4.785,13.215,4,12.25,4h-0.5C10.785,4,10,4.785,10,5.75v3.5C10,10.215,10.785,11,11.75,11z M11.5,5.75c0-0.138,0.112-0.25,0.25-0.25h0.5c0.138,0,0.25,0.112,0.25,0.25v3.5c0,0.138-0.112,0.25-0.25,0.25h-0.5c-0.138,0-0.25-0.112-0.25-0.25V5.75z M15,7.25v-2.5C15,4.336,15.336,4,15.75,4s0.75,0.336,0.75,0.75v2.5c0,0.138,0.112,0.25,0.25,0.25h0.75V4.75C17.5,4.336,17.836,4,18.25,4S19,4.336,19,4.75v5.5c0,0.414-0.336,0.75-0.75,0.75s-0.75-0.336-0.75-0.75V9h-0.75C15.785,9,15,8.215,15,7.25z M5,7.25v-2.5C5,4.336,5.336,4,5.75,4S6.5,4.336,6.5,4.75v2.5c0,0.138,0.112,0.25,0.25,0.25H7.5V4.75C7.5,4.336,7.836,4,8.25,4S9,4.336,9,4.75v5.5C9,10.664,8.664,11,8.25,11S7.5,10.664,7.5,10.25V9H6.75C5.785,9,5,8.215,5,7.25z M21.25,1H2.75C1.233,1,0,2.233,0,3.75v10.5C0,15.767,1.233,17,2.75,17h6v0.25C8.75,18.215,7.965,19,7,19v0.025c-1.674,0.13-3,1.518-3,3.225C4,22.664,4.336,23,4.75,23h14.5c0.414,0,0.75-0.336,0.75-0.75c0-1.706-1.326-3.095-3-3.225V19c-0.965,0-1.75-0.785-1.75-1.75V17h6c1.517,0,2.75-1.233,2.75-2.75V3.75C24,2.233,22.767,1,21.25,1z M2.75,2.5h18.5c0.689,0,1.25,0.561,1.25,1.25v8.75h-21V3.75C1.5,3.061,2.061,2.5,2.75,2.5z M18.331,21.5H5.669c0.281-0.591,0.884-1,1.581-1h9.5C17.447,20.5,18.05,20.909,18.331,21.5z M14.27,19H9.73c0.326-0.506,0.52-1.105,0.52-1.75V17h3.5v0.25C13.75,17.895,13.944,18.494,14.27,19z M21.25,15.5H2.75c-0.689,0-1.25-0.561-1.25-1.25V14h21v0.25C22.5,14.939,21.939,15.5,21.25,15.5z"/></svg>