<svg xmlns="http://www.w3.org/2000/svg" width="1979.009" height="1163.34" viewBox="0 0 1979.009 1163.34">
  <g id="Group_3024" data-name="Group 3024" transform="translate(9377.03 -496.68) rotate(180)" opacity="0.13">
    <rect id="Rectangle_15" data-name="Rectangle 15" width="66.63" height="66.63" transform="translate(7398.021 -1660.02)" fill="#f9a826" opacity="0.2"/>
    <rect id="Rectangle_320" data-name="Rectangle 320" width="66.63" height="66.63" transform="translate(7398.021 -1069.731)" fill="#f9a826" opacity="0.2"/>
    <rect id="Rectangle_16" data-name="Rectangle 16" width="66.63" height="66.63" transform="translate(7489.071 -1660.02)" fill="#f9a826" opacity="0.2"/>
    <rect id="Rectangle_321" data-name="Rectangle 321" width="66.63" height="66.63" transform="translate(7489.071 -1069.731)" fill="#f9a826" opacity="0.2"/>
    <rect id="Rectangle_17" data-name="Rectangle 17" width="66.63" height="66.63" transform="translate(7580.148 -1660.02)" fill="#f9a826" opacity="0.2"/>
    <rect id="Rectangle_322" data-name="Rectangle 322" width="66.63" height="66.63" transform="translate(7580.148 -1069.731)" fill="#f9a826" opacity="0.2"/>
    <rect id="Rectangle_18" data-name="Rectangle 18" width="66.63" height="66.63" transform="translate(7671.198 -1660.02)" fill="#f9a826" opacity="0.2"/>
    <rect id="Rectangle_323" data-name="Rectangle 323" width="66.63" height="66.63" transform="translate(7671.198 -1069.731)" fill="#f9a826" opacity="0.2"/>
    <rect id="Rectangle_19" data-name="Rectangle 19" width="66.63" height="66.63" transform="translate(7762.276 -1660.02)" fill="#f9a826" opacity="0.2"/>
    <rect id="Rectangle_324" data-name="Rectangle 324" width="66.63" height="66.63" transform="translate(7762.276 -1069.731)" fill="#f9a826" opacity="0.2"/>
    <rect id="Rectangle_20" data-name="Rectangle 20" width="66.63" height="66.63" transform="translate(7853.354 -1660.02)" fill="#f9a826"/>
    <rect id="Rectangle_21" data-name="Rectangle 21" width="66.63" height="66.63" transform="translate(7944.404 -1660.02)" fill="#f9a826" opacity="0.2"/>
    <rect id="Rectangle_326" data-name="Rectangle 326" width="66.63" height="66.63" transform="translate(7944.404 -1069.731)" fill="#f9a826" opacity="0.2"/>
    <rect id="Rectangle_22" data-name="Rectangle 22" width="66.63" height="66.63" transform="translate(8035.481 -1660.02)" fill="#f9a826" opacity="0.2"/>
    <rect id="Rectangle_327" data-name="Rectangle 327" width="66.63" height="66.63" transform="translate(8035.481 -1069.731)" fill="#f9a826" opacity="0.2"/>
    <rect id="Rectangle_23" data-name="Rectangle 23" width="66.63" height="66.63" transform="translate(8126.531 -1660.02)" fill="#f9a826" opacity="0.2"/>
    <rect id="Rectangle_328" data-name="Rectangle 328" width="66.63" height="66.63" transform="translate(8126.531 -1069.731)" fill="#f9a826" opacity="0.2"/>
    <rect id="Rectangle_24" data-name="Rectangle 24" width="66.63" height="66.63" transform="translate(8217.609 -1660.02)" fill="#f9a826"/>
    <rect id="Rectangle_329" data-name="Rectangle 329" width="66.63" height="66.63" transform="translate(8217.609 -1069.731)" fill="#f9a826"/>
    <rect id="Rectangle_25" data-name="Rectangle 25" width="66.63" height="66.63" transform="translate(8308.686 -1660.02)" fill="#f9a826" opacity="0.2"/>
    <rect id="Rectangle_330" data-name="Rectangle 330" width="66.63" height="66.63" transform="translate(8308.686 -1069.731)" fill="#f9a826" opacity="0.2"/>
    <rect id="Rectangle_26" data-name="Rectangle 26" width="66.63" height="66.63" transform="translate(8399.736 -1660.02)" fill="#f9a826" opacity="0.2"/>
    <rect id="Rectangle_331" data-name="Rectangle 331" width="66.63" height="66.63" transform="translate(8399.736 -1069.731)" fill="#f9a826" opacity="0.2"/>
    <rect id="Rectangle_27" data-name="Rectangle 27" width="66.63" height="66.63" transform="translate(8490.813 -1660.02)" fill="#f9a826" opacity="0.2"/>
    <rect id="Rectangle_332" data-name="Rectangle 332" width="66.63" height="66.63" transform="translate(8490.813 -1069.731)" fill="#f9a826" opacity="0.2"/>
    <rect id="Rectangle_28" data-name="Rectangle 28" width="66.63" height="66.63" transform="translate(8581.89 -1660.02)" fill="#f9a826" opacity="0.2"/>
    <rect id="Rectangle_29" data-name="Rectangle 29" width="66.63" height="66.63" transform="translate(8672.941 -1660.02)" fill="#f9a826" opacity="0.2"/>
    <rect id="Rectangle_334" data-name="Rectangle 334" width="66.63" height="66.63" transform="translate(8672.941 -1069.731)" fill="#f9a826" opacity="0.2"/>
    <rect id="Rectangle_30" data-name="Rectangle 30" width="66.63" height="66.63" transform="translate(8764.019 -1660.02)" fill="#f9a826" opacity="0.2"/>
    <rect id="Rectangle_31" data-name="Rectangle 31" width="66.63" height="66.63" transform="translate(8855.068 -1660.02)" fill="#f9a826"/>
    <rect id="Rectangle_336" data-name="Rectangle 336" width="66.63" height="66.63" transform="translate(8855.068 -1069.731)" fill="#f9a826"/>
    <rect id="Rectangle_32" data-name="Rectangle 32" width="66.63" height="66.63" transform="translate(8946.146 -1660.02)" fill="#f9a826"/>
    <rect id="Rectangle_337" data-name="Rectangle 337" width="66.63" height="66.63" transform="translate(8946.146 -1069.731)" fill="#f9a826"/>
    <rect id="Rectangle_33" data-name="Rectangle 33" width="66.63" height="66.63" transform="translate(9037.222 -1660.02)" fill="#f9a826" opacity="0.2"/>
    <rect id="Rectangle_338" data-name="Rectangle 338" width="66.63" height="66.63" transform="translate(9037.222 -1069.731)" fill="#f9a826" opacity="0.2"/>
    <rect id="Rectangle_34" data-name="Rectangle 34" width="66.63" height="66.63" transform="translate(9128.274 -1660.02)" fill="#f9a826" opacity="0.2"/>
    <rect id="Rectangle_339" data-name="Rectangle 339" width="66.63" height="66.63" transform="translate(9128.274 -1069.731)" fill="#f9a826" opacity="0.2"/>
    <rect id="Rectangle_35" data-name="Rectangle 35" width="66.63" height="66.63" transform="translate(9219.351 -1660.02)" fill="#f9a826"/>
    <rect id="Rectangle_340" data-name="Rectangle 340" width="66.63" height="66.63" transform="translate(9219.351 -1069.731)" fill="#f9a826"/>
    <rect id="Rectangle_36" data-name="Rectangle 36" width="66.63" height="66.63" transform="translate(9310.4 -1660.02)" fill="#f9a826"/>
    <rect id="Rectangle_341" data-name="Rectangle 341" width="66.63" height="66.63" transform="translate(9310.4 -1069.731)" fill="#f9a826"/>
    <rect id="Rectangle_302" data-name="Rectangle 302" width="66.63" height="66.63" transform="translate(7398.021 -985.34)" fill="#f9a826"/>
    <rect id="Rectangle_39" data-name="Rectangle 39" width="66.63" height="66.63" transform="translate(7489.071 -1575.63)" fill="#f9a826" opacity="0.2"/>
    <rect id="Rectangle_303" data-name="Rectangle 303" width="66.63" height="66.63" transform="translate(7489.071 -951.386)" fill="#f9a826" opacity="0.2"/>
    <rect id="Rectangle_40" data-name="Rectangle 40" width="66.63" height="66.63" transform="translate(7580.148 -1575.63)" fill="#f9a826" opacity="0.7"/>
    <rect id="Rectangle_304" data-name="Rectangle 304" width="66.63" height="66.63" transform="translate(7580.148 -985.34)" fill="#f9a826" opacity="0.7"/>
    <rect id="Rectangle_41" data-name="Rectangle 41" width="66.63" height="66.63" transform="translate(7671.198 -1575.63)" fill="#f9a826" opacity="0.2"/>
    <rect id="Rectangle_42" data-name="Rectangle 42" width="66.63" height="66.63" transform="translate(7762.276 -1575.63)" fill="#f9a826" opacity="0.4"/>
    <rect id="Rectangle_284" data-name="Rectangle 284" width="66.63" height="66.63" transform="translate(7762.276 -985.34)" fill="#f9a826" opacity="0.4"/>
    <rect id="Rectangle_43" data-name="Rectangle 43" width="66.63" height="66.63" transform="translate(7853.354 -1575.63)" fill="#f9a826"/>
    <rect id="Rectangle_285" data-name="Rectangle 285" width="66.63" height="66.63" transform="translate(7853.354 -985.34)" fill="#f9a826"/>
    <rect id="Rectangle_44" data-name="Rectangle 44" width="66.63" height="66.63" transform="translate(7944.404 -1575.63)" fill="#f9a826" opacity="0.4"/>
    <rect id="Rectangle_286" data-name="Rectangle 286" width="66.63" height="66.63" transform="translate(7944.404 -985.34)" fill="#f9a826" opacity="0.4"/>
    <rect id="Rectangle_45" data-name="Rectangle 45" width="66.63" height="66.63" transform="translate(8035.481 -1575.63)" fill="#f9a826" opacity="0.2"/>
    <rect id="Rectangle_287" data-name="Rectangle 287" width="66.63" height="66.63" transform="translate(8035.481 -985.34)" fill="#f9a826" opacity="0.2"/>
    <rect id="Rectangle_46" data-name="Rectangle 46" width="66.63" height="66.63" transform="translate(8126.531 -1575.63)" fill="#f9a826" opacity="0.4"/>
    <rect id="Rectangle_288" data-name="Rectangle 288" width="66.63" height="66.63" transform="translate(8126.531 -985.34)" fill="#f9a826" opacity="0.4"/>
    <rect id="Rectangle_47" data-name="Rectangle 47" width="66.63" height="66.63" transform="translate(8217.609 -1575.63)" fill="#f9a826"/>
    <rect id="Rectangle_289" data-name="Rectangle 289" width="66.63" height="66.63" transform="translate(8217.609 -985.34)" fill="#f9a826"/>
    <rect id="Rectangle_48" data-name="Rectangle 48" width="66.63" height="66.63" transform="translate(8308.686 -1575.63)" fill="#f9a826" opacity="0.4"/>
    <rect id="Rectangle_290" data-name="Rectangle 290" width="66.63" height="66.63" transform="translate(8308.686 -985.34)" fill="#f9a826" opacity="0.4"/>
    <rect id="Rectangle_49" data-name="Rectangle 49" width="66.63" height="66.63" transform="translate(8399.736 -1575.63)" fill="#f9a826" opacity="0.4"/>
    <rect id="Rectangle_291" data-name="Rectangle 291" width="66.63" height="66.63" transform="translate(8399.736 -985.34)" fill="#f9a826" opacity="0.4"/>
    <rect id="Rectangle_50" data-name="Rectangle 50" width="66.63" height="66.63" transform="translate(8490.813 -1575.63)" fill="#f9a826" opacity="0.2"/>
    <rect id="Rectangle_51" data-name="Rectangle 51" width="66.63" height="66.63" transform="translate(8581.89 -1575.63)" fill="#f9a826" opacity="0.4"/>
    <rect id="Rectangle_293" data-name="Rectangle 293" width="66.63" height="66.63" transform="translate(8581.89 -985.34)" fill="#f9a826" opacity="0.4"/>
    <rect id="Rectangle_52" data-name="Rectangle 52" width="66.63" height="66.63" transform="translate(8672.941 -1575.63)" fill="#f9a826" opacity="0.4"/>
    <rect id="Rectangle_294" data-name="Rectangle 294" width="66.63" height="66.63" transform="translate(8672.941 -985.34)" fill="#f9a826" opacity="0.4"/>
    <rect id="Rectangle_53" data-name="Rectangle 53" width="66.63" height="66.63" transform="translate(8764.019 -1575.63)" fill="#f9a826" opacity="0.2"/>
    <rect id="Rectangle_54" data-name="Rectangle 54" width="66.63" height="66.63" transform="translate(8855.068 -1575.63)" fill="#f9a826" opacity="0.2"/>
    <rect id="Rectangle_296" data-name="Rectangle 296" width="66.63" height="66.63" transform="translate(8855.068 -985.34)" fill="#f9a826" opacity="0.2"/>
    <rect id="Rectangle_55" data-name="Rectangle 55" width="66.63" height="66.63" transform="translate(8946.146 -1575.63)" fill="#f9a826" opacity="0.4"/>
    <rect id="Rectangle_297" data-name="Rectangle 297" width="66.63" height="66.63" transform="translate(8946.146 -985.34)" fill="#f9a826" opacity="0.4"/>
    <rect id="Rectangle_56" data-name="Rectangle 56" width="66.63" height="66.63" transform="translate(9037.222 -1575.63)" fill="#f9a826" opacity="0.2"/>
    <rect id="Rectangle_298" data-name="Rectangle 298" width="66.63" height="66.63" transform="translate(9037.222 -985.34)" fill="#f9a826" opacity="0.2"/>
    <rect id="Rectangle_57" data-name="Rectangle 57" width="66.63" height="66.63" transform="translate(9128.274 -1575.63)" fill="#f9a826"/>
    <rect id="Rectangle_299" data-name="Rectangle 299" width="66.63" height="66.63" transform="translate(9128.274 -985.34)" fill="#f9a826"/>
    <rect id="Rectangle_58" data-name="Rectangle 58" width="66.63" height="66.63" transform="translate(9219.351 -1575.63)" fill="#f9a826"/>
    <rect id="Rectangle_300" data-name="Rectangle 300" width="66.63" height="66.63" transform="translate(9219.351 -985.34)" fill="#f9a826"/>
    <rect id="Rectangle_59" data-name="Rectangle 59" width="66.63" height="66.63" transform="translate(9310.4 -1575.63)" fill="#f9a826"/>
    <rect id="Rectangle_301" data-name="Rectangle 301" width="66.63" height="66.63" transform="translate(9310.4 -985.34)" fill="#f9a826"/>
    <rect id="Rectangle_305" data-name="Rectangle 305" width="66.63" height="66.63" transform="translate(7398.021 -900.924)" fill="#f9a826"/>
    <rect id="Rectangle_63" data-name="Rectangle 63" width="66.63" height="66.63" transform="translate(7489.071 -1491.213)" fill="#f9a826" opacity="0.7"/>
    <rect id="Rectangle_306" data-name="Rectangle 306" width="66.63" height="66.63" transform="translate(7489.071 -900.924)" fill="#f9a826" opacity="0.7"/>
    <rect id="Rectangle_64" data-name="Rectangle 64" width="66.63" height="66.63" transform="translate(7580.148 -1491.213)" fill="#f9a826" opacity="0.7"/>
    <rect id="Rectangle_307" data-name="Rectangle 307" width="66.63" height="66.63" transform="translate(7580.148 -900.924)" fill="#f9a826" opacity="0.7"/>
    <rect id="Rectangle_65" data-name="Rectangle 65" width="66.63" height="66.63" transform="translate(7671.198 -1491.213)" fill="#f9a826" opacity="0.2"/>
    <rect id="Rectangle_212" data-name="Rectangle 212" width="66.63" height="66.63" transform="translate(7671.198 -900.924)" fill="#f9a826" opacity="0.2"/>
    <rect id="Rectangle_66" data-name="Rectangle 66" width="66.63" height="66.63" transform="translate(7762.276 -1491.213)" fill="#f9a826" opacity="0.4"/>
    <rect id="Rectangle_213" data-name="Rectangle 213" width="66.63" height="66.63" transform="translate(7762.276 -900.924)" fill="#f9a826" opacity="0.4"/>
    <rect id="Rectangle_67" data-name="Rectangle 67" width="66.63" height="66.63" transform="translate(7853.354 -1491.213)" fill="#f9a826" opacity="0.4"/>
    <rect id="Rectangle_214" data-name="Rectangle 214" width="66.63" height="66.63" transform="translate(7853.354 -900.924)" fill="#f9a826" opacity="0.4"/>
    <rect id="Rectangle_68" data-name="Rectangle 68" width="66.63" height="66.63" transform="translate(7944.404 -1491.213)" fill="#f9a826"/>
    <rect id="Rectangle_215" data-name="Rectangle 215" width="66.63" height="66.63" transform="translate(7944.404 -900.924)" fill="#f9a826"/>
    <rect id="Rectangle_69" data-name="Rectangle 69" width="66.63" height="66.63" transform="translate(8035.481 -1491.213)" fill="#f9a826" opacity="0.2"/>
    <rect id="Rectangle_216" data-name="Rectangle 216" width="66.63" height="66.63" transform="translate(8035.481 -900.924)" fill="#f9a826" opacity="0.2"/>
    <rect id="Rectangle_70" data-name="Rectangle 70" width="66.63" height="66.63" transform="translate(8126.531 -1491.213)" fill="#f9a826" opacity="0.4"/>
    <rect id="Rectangle_217" data-name="Rectangle 217" width="66.63" height="66.63" transform="translate(8126.531 -900.924)" fill="#f9a826" opacity="0.4"/>
    <rect id="Rectangle_71" data-name="Rectangle 71" width="66.63" height="66.63" transform="translate(8217.609 -1491.213)" fill="#f9a826"/>
    <rect id="Rectangle_218" data-name="Rectangle 218" width="66.63" height="66.63" transform="translate(8217.609 -900.924)" fill="#f9a826"/>
    <rect id="Rectangle_72" data-name="Rectangle 72" width="66.63" height="66.63" transform="translate(8308.686 -1491.213)" fill="#f9a826" opacity="0.2"/>
    <rect id="Rectangle_219" data-name="Rectangle 219" width="66.63" height="66.63" transform="translate(8308.686 -900.924)" fill="#f9a826" opacity="0.2"/>
    <rect id="Rectangle_73" data-name="Rectangle 73" width="66.63" height="66.63" transform="translate(8399.736 -1491.213)" fill="#f9a826" opacity="0.4"/>
    <rect id="Rectangle_220" data-name="Rectangle 220" width="66.63" height="66.63" transform="translate(8399.736 -900.924)" fill="#f9a826" opacity="0.4"/>
    <rect id="Rectangle_74" data-name="Rectangle 74" width="66.63" height="66.63" transform="translate(8490.813 -1491.213)" fill="#f9a826" opacity="0.2"/>
    <rect id="Rectangle_221" data-name="Rectangle 221" width="66.63" height="66.63" transform="translate(8490.813 -900.924)" fill="#f9a826" opacity="0.2"/>
    <rect id="Rectangle_75" data-name="Rectangle 75" width="66.63" height="66.63" transform="translate(8581.89 -1491.213)" fill="#f9a826"/>
    <rect id="Rectangle_222" data-name="Rectangle 222" width="66.63" height="66.63" transform="translate(8581.89 -900.924)" fill="#f9a826"/>
    <rect id="Rectangle_76" data-name="Rectangle 76" width="66.63" height="66.63" transform="translate(8672.941 -1491.213)" fill="#f9a826" opacity="0.2"/>
    <rect id="Rectangle_223" data-name="Rectangle 223" width="66.63" height="66.63" transform="translate(8672.941 -900.924)" fill="#f9a826" opacity="0.2"/>
    <rect id="Rectangle_77" data-name="Rectangle 77" width="66.63" height="66.63" transform="translate(8764.019 -1491.213)" fill="#f9a826" opacity="0.7"/>
    <rect id="Rectangle_78" data-name="Rectangle 78" width="66.63" height="66.63" transform="translate(8855.068 -1491.213)" fill="#f9a826" opacity="0.7"/>
    <rect id="Rectangle_225" data-name="Rectangle 225" width="66.63" height="66.63" transform="translate(8855.068 -900.924)" fill="#f9a826" opacity="0.7"/>
    <rect id="Rectangle_79" data-name="Rectangle 79" width="66.63" height="66.63" transform="translate(8946.146 -1491.213)" fill="#f9a826" opacity="0.4"/>
    <rect id="Rectangle_226" data-name="Rectangle 226" width="66.63" height="66.63" transform="translate(8946.146 -900.924)" fill="#f9a826" opacity="0.4"/>
    <rect id="Rectangle_80" data-name="Rectangle 80" width="66.63" height="66.63" transform="translate(9037.222 -1491.213)" fill="#f9a826" opacity="0.2"/>
    <rect id="Rectangle_227" data-name="Rectangle 227" width="66.63" height="66.63" transform="translate(9037.222 -900.924)" fill="#f9a826" opacity="0.2"/>
    <rect id="Rectangle_81" data-name="Rectangle 81" width="66.63" height="66.63" transform="translate(9128.274 -1491.213)" fill="#f9a826"/>
    <rect id="Rectangle_228" data-name="Rectangle 228" width="66.63" height="66.63" transform="translate(9128.274 -900.924)" fill="#f9a826"/>
    <rect id="Rectangle_82" data-name="Rectangle 82" width="66.63" height="66.63" transform="translate(9219.351 -1491.213)" fill="#f9a826"/>
    <rect id="Rectangle_229" data-name="Rectangle 229" width="66.63" height="66.63" transform="translate(9219.351 -900.924)" fill="#f9a826"/>
    <rect id="Rectangle_83" data-name="Rectangle 83" width="66.63" height="66.63" transform="translate(9310.4 -1491.213)" fill="#f9a826"/>
    <rect id="Rectangle_230" data-name="Rectangle 230" width="66.63" height="66.63" transform="translate(9310.4 -900.924)" fill="#f9a826"/>
    <rect id="Rectangle_308" data-name="Rectangle 308" width="66.63" height="66.63" transform="translate(7398.021 -816.533)" fill="#f9a826"/>
    <rect id="Rectangle_309" data-name="Rectangle 309" width="66.63" height="66.63" transform="translate(7489.071 -782.578)" fill="#f9a826" opacity="0.7"/>
    <rect id="Rectangle_90" data-name="Rectangle 90" width="66.63" height="66.63" transform="translate(7580.148 -1406.823)" fill="#f9a826" opacity="0.7"/>
    <rect id="Rectangle_310" data-name="Rectangle 310" width="66.63" height="66.63" transform="translate(7580.148 -816.533)" fill="#f9a826" opacity="0.7"/>
    <rect id="Rectangle_91" data-name="Rectangle 91" width="66.63" height="66.63" transform="translate(7671.198 -1406.823)" fill="#f9a826" opacity="0.2"/>
    <rect id="Rectangle_231" data-name="Rectangle 231" width="66.63" height="66.63" transform="translate(7671.198 -816.533)" fill="#f9a826" opacity="0.2"/>
    <rect id="Rectangle_92" data-name="Rectangle 92" width="66.63" height="66.63" transform="translate(7762.276 -1406.823)" fill="#f9a826" opacity="0.2"/>
    <rect id="Rectangle_232" data-name="Rectangle 232" width="66.63" height="66.63" transform="translate(7762.276 -816.533)" fill="#f9a826" opacity="0.2"/>
    <rect id="Rectangle_93" data-name="Rectangle 93" width="66.63" height="66.63" transform="translate(7853.354 -1406.823)" fill="#f9a826" opacity="0.4"/>
    <rect id="Rectangle_233" data-name="Rectangle 233" width="66.63" height="66.63" transform="translate(7853.354 -816.533)" fill="#f9a826" opacity="0.4"/>
    <rect id="Rectangle_94" data-name="Rectangle 94" width="66.63" height="66.63" transform="translate(7944.404 -1406.823)" fill="#f9a826" opacity="0.4"/>
    <rect id="Rectangle_234" data-name="Rectangle 234" width="66.63" height="66.63" transform="translate(7944.404 -816.533)" fill="#f9a826" opacity="0.4"/>
    <rect id="Rectangle_95" data-name="Rectangle 95" width="66.63" height="66.63" transform="translate(8035.481 -1406.823)" fill="#f9a826"/>
    <rect id="Rectangle_235" data-name="Rectangle 235" width="66.63" height="66.63" transform="translate(8035.481 -816.533)" fill="#f9a826"/>
    <rect id="Rectangle_96" data-name="Rectangle 96" width="66.63" height="66.63" transform="translate(8126.531 -1406.823)" fill="#f9a826" opacity="0.2"/>
    <rect id="Rectangle_236" data-name="Rectangle 236" width="66.63" height="66.63" transform="translate(8126.531 -816.533)" fill="#f9a826" opacity="0.2"/>
    <rect id="Rectangle_97" data-name="Rectangle 97" width="66.63" height="66.63" transform="translate(8217.609 -1406.823)" fill="#f9a826" opacity="0.4"/>
    <rect id="Rectangle_237" data-name="Rectangle 237" width="66.63" height="66.63" transform="translate(8217.609 -816.533)" fill="#f9a826" opacity="0.4"/>
    <rect id="Rectangle_98" data-name="Rectangle 98" width="66.63" height="66.63" transform="translate(8308.686 -1406.823)" fill="#f9a826" opacity="0.4"/>
    <rect id="Rectangle_238" data-name="Rectangle 238" width="66.63" height="66.63" transform="translate(8308.686 -816.533)" fill="#f9a826" opacity="0.4"/>
    <rect id="Rectangle_99" data-name="Rectangle 99" width="66.63" height="66.63" transform="translate(8399.736 -1406.823)" fill="#f9a826" opacity="0.4"/>
    <rect id="Rectangle_239" data-name="Rectangle 239" width="66.63" height="66.63" transform="translate(8399.736 -816.533)" fill="#f9a826" opacity="0.4"/>
    <rect id="Rectangle_100" data-name="Rectangle 100" width="66.63" height="66.63" transform="translate(8490.813 -1406.823)" fill="#f9a826" opacity="0.4"/>
    <rect id="Rectangle_101" data-name="Rectangle 101" width="66.63" height="66.63" transform="translate(8581.89 -1406.823)" fill="#f9a826" opacity="0.2"/>
    <rect id="Rectangle_241" data-name="Rectangle 241" width="66.63" height="66.63" transform="translate(8581.89 -816.533)" fill="#f9a826" opacity="0.2"/>
    <rect id="Rectangle_102" data-name="Rectangle 102" width="66.63" height="66.63" transform="translate(8672.941 -1406.823)" fill="#f9a826" opacity="0.2"/>
    <rect id="Rectangle_242" data-name="Rectangle 242" width="66.63" height="66.63" transform="translate(8672.941 -816.533)" fill="#f9a826" opacity="0.2"/>
    <rect id="Rectangle_103" data-name="Rectangle 103" width="66.63" height="66.63" transform="translate(8764.019 -1406.823)" fill="#f9a826" opacity="0.2"/>
    <rect id="Rectangle_104" data-name="Rectangle 104" width="66.63" height="66.63" transform="translate(8855.068 -1406.823)" fill="#f9a826" opacity="0.2"/>
    <rect id="Rectangle_244" data-name="Rectangle 244" width="66.63" height="66.63" transform="translate(8855.068 -816.533)" fill="#f9a826" opacity="0.2"/>
    <rect id="Rectangle_105" data-name="Rectangle 105" width="66.63" height="66.63" transform="translate(8946.146 -1406.823)" fill="#f9a826" opacity="0.7"/>
    <rect id="Rectangle_245" data-name="Rectangle 245" width="66.63" height="66.63" transform="translate(8946.146 -816.533)" fill="#f9a826" opacity="0.7"/>
    <rect id="Rectangle_106" data-name="Rectangle 106" width="66.63" height="66.63" transform="translate(9037.222 -1406.823)" fill="#f9a826" opacity="0.7"/>
    <rect id="Rectangle_246" data-name="Rectangle 246" width="66.63" height="66.63" transform="translate(9037.222 -816.533)" fill="#f9a826" opacity="0.7"/>
    <rect id="Rectangle_107" data-name="Rectangle 107" width="66.63" height="66.63" transform="translate(9128.274 -1406.823)" fill="#f9a826" opacity="0.4"/>
    <rect id="Rectangle_247" data-name="Rectangle 247" width="66.63" height="66.63" transform="translate(9128.274 -816.533)" fill="#f9a826" opacity="0.4"/>
    <rect id="Rectangle_108" data-name="Rectangle 108" width="66.63" height="66.63" transform="translate(9219.351 -1406.823)" fill="#f9a826" opacity="0.2"/>
    <rect id="Rectangle_248" data-name="Rectangle 248" width="66.63" height="66.63" transform="translate(9219.351 -816.533)" fill="#f9a826" opacity="0.2"/>
    <rect id="Rectangle_109" data-name="Rectangle 109" width="66.63" height="66.63" transform="translate(9310.4 -1406.823)" fill="#f9a826"/>
    <rect id="Rectangle_249" data-name="Rectangle 249" width="66.63" height="66.63" transform="translate(9310.4 -816.533)" fill="#f9a826"/>
    <rect id="Rectangle_114" data-name="Rectangle 114" width="66.63" height="66.63" transform="translate(7398.021 -1322.406)" fill="#f9a826" opacity="0.2"/>
    <rect id="Rectangle_311" data-name="Rectangle 311" width="66.63" height="66.63" transform="translate(7398.021 -732.116)" fill="#f9a826" opacity="0.2"/>
    <rect id="Rectangle_115" data-name="Rectangle 115" width="66.63" height="66.63" transform="translate(7489.071 -1322.406)" fill="#f9a826" opacity="0.7"/>
    <rect id="Rectangle_312" data-name="Rectangle 312" width="66.63" height="66.63" transform="translate(7489.071 -732.116)" fill="#f9a826" opacity="0.7"/>
    <rect id="Rectangle_116" data-name="Rectangle 116" width="66.63" height="66.63" transform="translate(7580.148 -1322.406)" fill="#f9a826" opacity="0.7"/>
    <rect id="Rectangle_250" data-name="Rectangle 250" width="66.63" height="66.63" transform="translate(7671.198 -732.116)" fill="#f9a826" opacity="0.2"/>
    <rect id="Rectangle_118" data-name="Rectangle 118" width="66.63" height="66.63" transform="translate(7762.276 -1322.406)" fill="#f9a826" opacity="0.2"/>
    <rect id="Rectangle_251" data-name="Rectangle 251" width="66.63" height="66.63" transform="translate(7762.276 -732.116)" fill="#f9a826" opacity="0.2"/>
    <rect id="Rectangle_252" data-name="Rectangle 252" width="66.63" height="66.63" transform="translate(7853.354 -732.116)" fill="#f9a826" opacity="0.4"/>
    <rect id="Rectangle_253" data-name="Rectangle 253" width="66.63" height="66.63" transform="translate(7944.404 -732.116)" fill="#f9a826"/>
    <rect id="Rectangle_254" data-name="Rectangle 254" width="66.63" height="66.63" transform="translate(8035.481 -732.116)" fill="#f9a826" opacity="0.2"/>
    <rect id="Rectangle_122" data-name="Rectangle 122" width="66.63" height="66.63" transform="translate(8126.531 -1322.406)" fill="#f9a826"/>
    <rect id="Rectangle_255" data-name="Rectangle 255" width="66.63" height="66.63" transform="translate(8126.531 -732.116)" fill="#f9a826"/>
    <rect id="Rectangle_123" data-name="Rectangle 123" width="66.63" height="66.63" transform="translate(8217.609 -1322.406)" fill="#f9a826"/>
    <rect id="Rectangle_256" data-name="Rectangle 256" width="66.63" height="66.63" transform="translate(8217.609 -732.116)" fill="#f9a826"/>
    <rect id="Rectangle_124" data-name="Rectangle 124" width="66.63" height="66.63" transform="translate(8308.686 -1322.406)" fill="#f9a826"/>
    <rect id="Rectangle_257" data-name="Rectangle 257" width="66.63" height="66.63" transform="translate(8308.686 -732.116)" fill="#f9a826"/>
    <rect id="Rectangle_125" data-name="Rectangle 125" width="66.63" height="66.63" transform="translate(8399.736 -1322.406)" fill="#f9a826" opacity="0.2"/>
    <rect id="Rectangle_258" data-name="Rectangle 258" width="66.63" height="66.63" transform="translate(8399.736 -732.116)" fill="#f9a826" opacity="0.2"/>
    <rect id="Rectangle_126" data-name="Rectangle 126" width="66.63" height="66.63" transform="translate(8490.813 -1322.406)" fill="#f9a826"/>
    <rect id="Rectangle_127" data-name="Rectangle 127" width="66.63" height="66.63" transform="translate(8581.89 -1322.406)" fill="#f9a826" opacity="0.2"/>
    <rect id="Rectangle_260" data-name="Rectangle 260" width="66.63" height="66.63" transform="translate(8581.89 -732.116)" fill="#f9a826" opacity="0.2"/>
    <rect id="Rectangle_128" data-name="Rectangle 128" width="66.63" height="66.63" transform="translate(8672.941 -1322.406)" fill="#f9a826" opacity="0.2"/>
    <rect id="Rectangle_261" data-name="Rectangle 261" width="66.63" height="66.63" transform="translate(8672.941 -732.116)" fill="#f9a826" opacity="0.2"/>
    <rect id="Rectangle_129" data-name="Rectangle 129" width="66.63" height="66.63" transform="translate(8764.019 -1322.406)" fill="#f9a826" opacity="0.2"/>
    <rect id="Rectangle_262" data-name="Rectangle 262" width="66.63" height="66.63" transform="translate(8764.019 -732.116)" fill="#f9a826" opacity="0.2"/>
    <rect id="Rectangle_130" data-name="Rectangle 130" width="66.63" height="66.63" transform="translate(8855.068 -1322.406)" fill="#f9a826" opacity="0.2"/>
    <rect id="Rectangle_131" data-name="Rectangle 131" width="66.63" height="66.63" transform="translate(8946.146 -1322.406)" fill="#f9a826" opacity="0.2"/>
    <rect id="Rectangle_264" data-name="Rectangle 264" width="66.63" height="66.63" transform="translate(8946.146 -732.116)" fill="#f9a826" opacity="0.2"/>
    <rect id="Rectangle_132" data-name="Rectangle 132" width="66.63" height="66.63" transform="translate(9037.222 -1322.406)" fill="#f9a826" opacity="0.7"/>
    <rect id="Rectangle_265" data-name="Rectangle 265" width="66.63" height="66.63" transform="translate(9037.222 -732.116)" fill="#f9a826" opacity="0.7"/>
    <rect id="Rectangle_133" data-name="Rectangle 133" width="66.63" height="66.63" transform="translate(9128.274 -1322.406)" fill="#f9a826" opacity="0.2"/>
    <rect id="Rectangle_266" data-name="Rectangle 266" width="66.63" height="66.63" transform="translate(9128.274 -732.116)" fill="#f9a826" opacity="0.2"/>
    <rect id="Rectangle_134" data-name="Rectangle 134" width="66.63" height="66.63" transform="translate(9219.351 -1322.406)" fill="#f9a826" opacity="0.2"/>
    <rect id="Rectangle_267" data-name="Rectangle 267" width="66.63" height="66.63" transform="translate(9219.351 -732.116)" fill="#f9a826" opacity="0.2"/>
    <rect id="Rectangle_135" data-name="Rectangle 135" width="66.63" height="66.63" transform="translate(9310.4 -1322.406)" fill="#f9a826"/>
    <rect id="Rectangle_268" data-name="Rectangle 268" width="66.63" height="66.63" transform="translate(9310.4 -732.116)" fill="#f9a826"/>
    <rect id="Rectangle_140" data-name="Rectangle 140" width="66.63" height="66.63" transform="translate(7398.021 -1238.016)" fill="#f9a826" opacity="0.2"/>
    <rect id="Rectangle_142" data-name="Rectangle 142" width="66.63" height="66.63" transform="translate(7580.148 -1238.016)" fill="#f9a826" opacity="0.7"/>
    <rect id="Rectangle_316" data-name="Rectangle 316" width="66.63" height="66.63" transform="translate(7580.148 -647.726)" fill="#f9a826" opacity="0.7"/>
    <rect id="Rectangle_143" data-name="Rectangle 143" width="66.63" height="66.63" transform="translate(7671.198 -1238.016)" fill="#f9a826" opacity="0.2"/>
    <rect id="Rectangle_144" data-name="Rectangle 144" width="66.63" height="66.63" transform="translate(7762.276 -1238.016)" fill="#f9a826" opacity="0.2"/>
    <rect id="Rectangle_270" data-name="Rectangle 270" width="66.63" height="66.63" transform="translate(7762.276 -647.726)" fill="#f9a826" opacity="0.2"/>
    <rect id="Rectangle_271" data-name="Rectangle 271" width="66.63" height="66.63" transform="translate(7853.354 -647.726)" fill="#f9a826" opacity="0.2"/>
    <rect id="Rectangle_146" data-name="Rectangle 146" width="66.63" height="66.63" transform="translate(7944.404 -1238.016)" fill="#f9a826"/>
    <rect id="Rectangle_272" data-name="Rectangle 272" width="66.63" height="66.63" transform="translate(7944.404 -647.726)" fill="#f9a826"/>
    <rect id="Rectangle_147" data-name="Rectangle 147" width="66.63" height="66.63" transform="translate(8035.481 -1238.016)" fill="#f9a826" opacity="0.2"/>
    <rect id="Rectangle_148" data-name="Rectangle 148" width="66.63" height="66.63" transform="translate(8126.531 -1238.016)" fill="#f9a826"/>
    <rect id="Rectangle_149" data-name="Rectangle 149" width="66.63" height="66.63" transform="translate(8217.609 -1238.016)" fill="#f9a826"/>
    <rect id="Rectangle_275" data-name="Rectangle 275" width="66.63" height="66.63" transform="translate(8217.609 -647.726)" fill="#f9a826"/>
    <rect id="Rectangle_150" data-name="Rectangle 150" width="66.63" height="66.63" transform="translate(8308.686 -1238.016)" fill="#f9a826" opacity="0.2"/>
    <rect id="Rectangle_210" data-name="Rectangle 210" width="66.63" height="66.63" transform="translate(8308.686 -647.726)" fill="#f9a826" opacity="0.2"/>
    <rect id="Rectangle_151" data-name="Rectangle 151" width="66.63" height="66.63" transform="translate(8399.736 -1238.016)" fill="#f9a826" opacity="0.2"/>
    <rect id="Rectangle_195" data-name="Rectangle 195" width="66.63" height="66.63" transform="translate(8399.736 -647.726)" fill="#f9a826" opacity="0.2"/>
    <rect id="Rectangle_152" data-name="Rectangle 152" width="66.63" height="66.63" transform="translate(8490.813 -1238.016)" fill="#f9a826" opacity="0.2"/>
    <rect id="Rectangle_196" data-name="Rectangle 196" width="66.63" height="66.63" transform="translate(8490.813 -647.726)" fill="#f9a826" opacity="0.2"/>
    <rect id="Rectangle_153" data-name="Rectangle 153" width="66.63" height="66.63" transform="translate(8581.89 -1238.016)" fill="#f9a826" opacity="0.2"/>
    <rect id="Rectangle_197" data-name="Rectangle 197" width="66.63" height="66.63" transform="translate(8581.89 -647.726)" fill="#f9a826" opacity="0.2"/>
    <rect id="Rectangle_154" data-name="Rectangle 154" width="66.63" height="66.63" transform="translate(8672.941 -1238.016)" fill="#f9a826" opacity="0.2"/>
    <rect id="Rectangle_198" data-name="Rectangle 198" width="66.63" height="66.63" transform="translate(8672.941 -647.726)" fill="#f9a826" opacity="0.2"/>
    <rect id="Rectangle_155" data-name="Rectangle 155" width="66.63" height="66.63" transform="translate(8764.019 -1238.016)" fill="#f9a826" opacity="0.2"/>
    <rect id="Rectangle_199" data-name="Rectangle 199" width="66.63" height="66.63" transform="translate(8764.019 -647.726)" fill="#f9a826" opacity="0.2"/>
    <rect id="Rectangle_156" data-name="Rectangle 156" width="66.63" height="66.63" transform="translate(8855.068 -1238.016)" fill="#f9a826" opacity="0.2"/>
    <rect id="Rectangle_157" data-name="Rectangle 157" width="66.63" height="66.63" transform="translate(8946.146 -1238.016)" fill="#f9a826" opacity="0.2"/>
    <rect id="Rectangle_201" data-name="Rectangle 201" width="66.63" height="66.63" transform="translate(8946.146 -647.726)" fill="#f9a826" opacity="0.2"/>
    <rect id="Rectangle_158" data-name="Rectangle 158" width="66.63" height="66.63" transform="translate(9037.222 -1238.016)" fill="#f9a826" opacity="0.2"/>
    <rect id="Rectangle_202" data-name="Rectangle 202" width="66.63" height="66.63" transform="translate(9037.222 -647.726)" fill="#f9a826" opacity="0.2"/>
    <rect id="Rectangle_159" data-name="Rectangle 159" width="66.63" height="66.63" transform="translate(9128.274 -1238.016)" fill="#f9a826" opacity="0.2"/>
    <rect id="Rectangle_203" data-name="Rectangle 203" width="66.63" height="66.63" transform="translate(9128.274 -647.726)" fill="#f9a826" opacity="0.2"/>
    <rect id="Rectangle_160" data-name="Rectangle 160" width="66.63" height="66.63" transform="translate(9219.351 -1238.016)" fill="#f9a826" opacity="0.4"/>
    <rect id="Rectangle_204" data-name="Rectangle 204" width="66.63" height="66.63" transform="translate(9219.351 -647.726)" fill="#f9a826" opacity="0.4"/>
    <rect id="Rectangle_161" data-name="Rectangle 161" width="66.63" height="66.63" transform="translate(9310.4 -1238.016)" fill="#f9a826"/>
    <rect id="Rectangle_205" data-name="Rectangle 205" width="66.63" height="66.63" transform="translate(9310.4 -647.726)" fill="#f9a826"/>
    <rect id="Rectangle_317" data-name="Rectangle 317" width="66.63" height="66.63" transform="translate(7398.021 -563.309)" fill="#f9a826" opacity="0.7"/>
    <rect id="Rectangle_319" data-name="Rectangle 319" width="66.63" height="66.63" transform="translate(7580.148 -563.309)" fill="#f9a826" opacity="0.2"/>
    <rect id="Rectangle_276" data-name="Rectangle 276" width="66.63" height="66.63" transform="translate(7671.198 -563.309)" fill="#f9a826" opacity="0.2"/>
    <rect id="Rectangle_170" data-name="Rectangle 170" width="66.63" height="66.63" transform="translate(7762.276 -1153.599)" fill="#f9a826" opacity="0.2"/>
    <rect id="Rectangle_277" data-name="Rectangle 277" width="66.63" height="66.63" transform="translate(7762.276 -563.309)" fill="#f9a826" opacity="0.2"/>
    <rect id="Rectangle_171" data-name="Rectangle 171" width="66.63" height="66.63" transform="translate(7853.354 -1153.599)" fill="#f9a826" opacity="0.2"/>
    <rect id="Rectangle_278" data-name="Rectangle 278" width="66.63" height="66.63" transform="translate(7853.354 -563.309)" fill="#f9a826" opacity="0.2"/>
    <rect id="Rectangle_172" data-name="Rectangle 172" width="66.63" height="66.63" transform="translate(7944.404 -1153.599)" fill="#f9a826" opacity="0.2"/>
    <rect id="Rectangle_279" data-name="Rectangle 279" width="66.63" height="66.63" transform="translate(7944.404 -563.309)" fill="#f9a826" opacity="0.2"/>
    <rect id="Rectangle_173" data-name="Rectangle 173" width="66.63" height="66.63" transform="translate(8035.481 -1153.599)" fill="#f9a826"/>
    <rect id="Rectangle_280" data-name="Rectangle 280" width="66.63" height="66.63" transform="translate(8011.974 -563.309)" fill="#f9a826"/>
    <rect id="Rectangle_174" data-name="Rectangle 174" width="66.63" height="66.63" transform="translate(8126.531 -1153.599)" fill="#f9a826" opacity="0.2"/>
    <rect id="Rectangle_281" data-name="Rectangle 281" width="66.63" height="66.63" transform="translate(8103.024 -563.309)" fill="#f9a826" opacity="0.2"/>
    <rect id="Rectangle_175" data-name="Rectangle 175" width="66.63" height="66.63" transform="translate(8217.609 -1187.553)" fill="#f9a826" opacity="0.2"/>
    <rect id="Rectangle_282" data-name="Rectangle 282" width="66.63" height="66.63" transform="translate(8217.609 -563.309)" fill="#f9a826" opacity="0.2"/>
    <rect id="Rectangle_176" data-name="Rectangle 176" width="66.63" height="66.63" transform="translate(8308.686 -1153.599)" fill="#f9a826" opacity="0.2"/>
    <rect id="Rectangle_211" data-name="Rectangle 211" width="66.63" height="66.63" transform="translate(8308.686 -563.309)" fill="#f9a826" opacity="0.2"/>
    <rect id="Rectangle_177" data-name="Rectangle 177" width="66.63" height="66.63" transform="translate(8399.736 -1153.599)" fill="#f9a826"/>
    <rect id="Rectangle_206" data-name="Rectangle 206" width="66.63" height="66.63" transform="translate(8399.736 -563.309)" fill="#f9a826"/>
    <rect id="Rectangle_178" data-name="Rectangle 178" width="66.63" height="66.63" transform="translate(8490.813 -1153.599)" fill="#f9a826" opacity="0.2"/>
    <rect id="Rectangle_179" data-name="Rectangle 179" width="66.63" height="66.63" transform="translate(8581.89 -1153.599)" fill="#f9a826" opacity="0.2"/>
    <rect id="Rectangle_208" data-name="Rectangle 208" width="66.63" height="66.63" transform="translate(8581.89 -563.309)" fill="#f9a826" opacity="0.2"/>
    <rect id="Rectangle_180" data-name="Rectangle 180" width="66.63" height="66.63" transform="translate(8672.941 -1153.599)" fill="#f9a826" opacity="0.2"/>
    <rect id="Rectangle_209" data-name="Rectangle 209" width="66.63" height="66.63" transform="translate(8672.941 -563.309)" fill="#f9a826" opacity="0.2"/>
    <rect id="Rectangle_181" data-name="Rectangle 181" width="66.63" height="66.63" transform="translate(8764.019 -1153.599)" fill="#f9a826" opacity="0.2"/>
    <rect id="Rectangle_188" data-name="Rectangle 188" width="66.63" height="66.63" transform="translate(8764.019 -563.309)" fill="#f9a826" opacity="0.2"/>
    <rect id="Rectangle_182" data-name="Rectangle 182" width="66.63" height="66.63" transform="translate(8855.068 -1153.599)" fill="#f9a826" opacity="0.2"/>
    <rect id="Rectangle_183" data-name="Rectangle 183" width="66.63" height="66.63" transform="translate(8946.146 -1153.599)" fill="#f9a826" opacity="0.2"/>
    <rect id="Rectangle_190" data-name="Rectangle 190" width="66.63" height="66.63" transform="translate(8946.146 -563.309)" fill="#f9a826" opacity="0.2"/>
    <rect id="Rectangle_184" data-name="Rectangle 184" width="66.63" height="66.63" transform="translate(9037.222 -1153.599)" fill="#f9a826" opacity="0.2"/>
    <rect id="Rectangle_185" data-name="Rectangle 185" width="66.63" height="66.63" transform="translate(9128.274 -1153.599)" fill="#f9a826" opacity="0.2"/>
    <rect id="Rectangle_186" data-name="Rectangle 186" width="66.63" height="66.63" transform="translate(9219.351 -1153.599)" fill="#f9a826" opacity="0.2"/>
    <rect id="Rectangle_193" data-name="Rectangle 193" width="66.63" height="66.63" transform="translate(9219.351 -563.309)" fill="#f9a826" opacity="0.2"/>
    <rect id="Rectangle_187" data-name="Rectangle 187" width="66.63" height="66.63" transform="translate(9310.4 -1153.599)" fill="#f9a826"/>
    <rect id="Rectangle_194" data-name="Rectangle 194" width="66.63" height="66.63" transform="translate(9310.4 -563.309)" fill="#f9a826"/>
  </g>
</svg>
