<svg xmlns="http://www.w3.org/2000/svg" xmlns:xlink="http://www.w3.org/1999/xlink" width="520.748" height="330.179" viewBox="0 0 520.748 330.179">
  <defs>
    <linearGradient id="linear-gradient" x1="0.5" y1="1" x2="0.5" gradientUnits="objectBoundingBox">
      <stop offset="0" stop-color="gray" stop-opacity="0.251"/>
      <stop offset="0.54" stop-color="gray" stop-opacity="0.122"/>
      <stop offset="1" stop-color="gray" stop-opacity="0.102"/>
    </linearGradient>
  </defs>
  <g id="Group_3036" data-name="Group 3036" transform="translate(-201 -1207)">
    <circle id="Ellipse_49" data-name="Ellipse 49" cx="77.229" cy="77.229" r="77.229" transform="translate(201.553 1211.132)" fill="url(#linear-gradient)"/>
    <circle id="Ellipse_50" data-name="Ellipse 50" cx="75.596" cy="75.596" r="75.596" transform="translate(203.186 1212.344)" fill="#f5f5f5"/>
    <path id="Path_62" data-name="Path 62" d="M304.589,292.718a75.243,75.243,0,0,0,41.556-12.435c-2.786-15.22-13.388-16.093-13.388-16.093h-58.45s-10,.82-13.128,14.827A75.25,75.25,0,0,0,304.589,292.718Z" transform="translate(-25.594 1071.031)"/>
    <circle id="Ellipse_51" data-name="Ellipse 51" cx="33.513" cy="33.513" r="33.513" transform="translate(244.689 1252.761)" fill="#333"/>
    <path id="Path_63" data-name="Path 63" d="M98.18,164.57h23.384v18.706a11.689,11.689,0,0,1-11.689,11.689h0a11.689,11.689,0,0,1-11.689-11.689V164.57Z" transform="translate(168.247 1152.099)" opacity="0.1"/>
    <path id="Path_64" data-name="Path 64" d="M100.416,163.27h18.919a2.232,2.232,0,0,1,2.232,2.232v16.473a11.689,11.689,0,0,1-11.689,11.689h0A11.689,11.689,0,0,1,98.19,181.976V165.5A2.232,2.232,0,0,1,100.416,163.27Z" transform="translate(168.243 1152.532)" fill="#be7c5e"/>
    <path id="Path_65" data-name="Path 65" d="M307.53,248.2a33.653,33.653,0,0,0,23.384.067V245.39H307.53Z" transform="translate(-41.057 1077.303)" opacity="0.1"/>
    <circle id="Ellipse_52" data-name="Ellipse 52" cx="33.513" cy="33.513" r="33.513" transform="translate(244.689 1260.038)" fill="#be7c5e"/>
    <path id="Path_66" data-name="Path 66" d="M279.162,159.949c.393-1.446.886-3.039,2.186-3.792a6.225,6.225,0,0,1,3.485-.446c9.263.506,18.446-1.606,27.456-3.812,5.151-1.259,10.662-2.792,13.994-6.944s-1.013-17.2-6.084-18.739c-3.332-1.02-7.2.88-10.356-.613a20.106,20.106,0,0,1-3.652-2.885c-2.486-2-5.678-2.806-8.77-3.565-3.612-.893-7.517-1.766-10.949-.333-2.666,1.106-4.611,3.445-7.137,4.831-4.8,2.666-10.662,1.426-16.167,1.413-1.859,0-4.078.373-4.818,2.079-.5,1.16-.1,2.479-.047,3.738.16,4-3.139,7.11-5.9,10s-5.378,7-3.632,10.589c.666,1.366,1.886,2.4,2.579,3.752,1.193,2.346.593,5.178,1.026,7.77a19.551,19.551,0,0,0,2.179,5.6c2.053,4,12.362,25.523,17.1,20.052,2.292-2.666,2.666-10.369,3.592-13.834Q277.163,167.333,279.162,159.949Z" transform="translate(-21.265 1119.781)" fill="#333"/>
    <ellipse id="Ellipse_53" data-name="Ellipse 53" cx="3.119" cy="5.844" rx="3.119" ry="5.844" transform="translate(251.24 1286.488)" fill="#be7c5e"/>
    <circle id="Ellipse_54" data-name="Ellipse 54" cx="77.229" cy="77.229" r="77.229" transform="translate(380.387 1379.217)" fill="url(#linear-gradient)"/>
    <circle id="Ellipse_55" data-name="Ellipse 55" cx="75.596" cy="75.596" r="75.596" transform="translate(382.167 1380.356)" fill="#f5f5f5"/>
    <path id="Path_67" data-name="Path 67" d="M572.946,544.968a75.242,75.242,0,0,0,41.53-12.435c-2.786-15.22-13.388-16.093-13.388-16.093h-58.43s-10,.82-13.128,14.827A75.249,75.249,0,0,0,572.946,544.968Z" transform="translate(-115.117 986.88)"/>
    <circle id="Ellipse_56" data-name="Ellipse 56" cx="36.492" cy="36.492" r="36.492" transform="translate(420.538 1417.868)" fill="#f55f44"/>
    <path id="Path_68" data-name="Path 68" d="M366.53,416.8h23.384v18.706a11.689,11.689,0,0,1-11.689,11.689h0a11.689,11.689,0,0,1-11.689-11.689V416.8Z" transform="translate(78.724 1067.954)" opacity="0.1"/>
    <path id="Path_69" data-name="Path 69" d="M368.766,415.5h18.919a2.232,2.232,0,0,1,2.232,2.232v16.473a11.689,11.689,0,0,1-11.689,11.689h0a11.689,11.689,0,0,1-11.689-11.689V417.732a2.232,2.232,0,0,1,2.232-2.232Z" transform="translate(78.721 1068.387)" fill="#fda57d"/>
    <path id="Path_70" data-name="Path 70" d="M575.88,500.426a33.654,33.654,0,0,0,23.384.067V497.62H575.88Z" transform="translate(-130.579 993.158)" opacity="0.1"/>
    <circle id="Ellipse_57" data-name="Ellipse 57" cx="33.513" cy="33.513" r="33.513" transform="translate(423.516 1428.124)" fill="#fda57d"/>
    <circle id="Ellipse_58" data-name="Ellipse 58" cx="13.488" cy="13.488" r="13.488" transform="translate(443.495 1403.753)" fill="#f55f44"/>
    <circle id="Ellipse_59" data-name="Ellipse 59" cx="8.856" cy="8.856" r="8.856" transform="translate(448.126 1395.104)" fill="#f55f44"/>
    <path id="Path_71" data-name="Path 71" d="M580.381,389.736a13.488,13.488,0,0,1-7.03-17.246c-.093.187-.187.38-.273.573a13.49,13.49,0,0,0,24.617,11.042c.087-.193.167-.387.247-.586a13.488,13.488,0,0,1-17.56,6.217Z" transform="translate(-129.249 1034.902)" fill="#f55f44"/>
    <path id="Path_72" data-name="Path 72" d="M557.67,403.917s14.121,28.655,53.978,12l-9.276-14.547-16.44-5.9Z" transform="translate(-124.504 1027.239)" opacity="0.1"/>
    <path id="Path_73" data-name="Path 73" d="M557.67,403.277s14.121,28.655,53.978,12l-9.276-14.547-16.44-5.9Z" transform="translate(-124.504 1027.453)" fill="#f55f44"/>
    <path id="Path_74" data-name="Path 74" d="M574,391.593a166.5,166.5,0,0,1,26.109,0S580.824,393.386,574,391.593Z" transform="translate(-129.952 1028.7)" fill="#333"/>
    <path id="Path_75" data-name="Path 75" d="M595.449,353.237a8.877,8.877,0,0,0-2,.153h.513a8.85,8.85,0,0,1,1.333,17.546,8.85,8.85,0,0,0,.16-17.7Z" transform="translate(-136.441 1041.327)" fill="#f55f44"/>
    <ellipse id="Ellipse_60" data-name="Ellipse 60" cx="3.119" cy="5.844" rx="3.119" ry="5.844" transform="translate(420.391 1455.759)" fill="#fda57d"/>
    <ellipse id="Ellipse_61" data-name="Ellipse 61" cx="3.119" cy="5.844" rx="3.119" ry="5.844" transform="translate(487.424 1455.759)" fill="#fda57d"/>
    <path id="Path_76" data-name="Path 76" d="M345.22,335.312l6.537-3.372,1.473,5.4-4.005,2.726Z" transform="translate(85.833 1096.263)" fill="#f55f44"/>
    <circle id="Ellipse_62" data-name="Ellipse 62" cx="77.229" cy="77.229" r="77.229" transform="translate(380.314 1207.34)" fill="url(#linear-gradient)"/>
    <circle id="Ellipse_63" data-name="Ellipse 63" cx="75.596" cy="75.596" r="75.596" transform="translate(381.946 1208.553)" fill="#f5f5f5"/>
    <path id="Path_77" data-name="Path 77" d="M543.368,188.56s-8.57,42.223-13.248,39.884c0,0,45.115,38.971,84.952,0,0,0-7.017-29.755-17.146-39.884Z" transform="translate(-115.313 1096.262)" fill="#333"/>
    <path id="Path_78" data-name="Path 78" d="M572.836,287.048a75.243,75.243,0,0,0,41.556-12.435C611.607,259.393,601,258.52,601,258.52H542.548s-10,.82-13.128,14.827A75.249,75.249,0,0,0,572.836,287.048Z" transform="translate(-115.08 1072.923)"/>
    <circle id="Ellipse_64" data-name="Ellipse 64" cx="33.513" cy="33.513" r="33.513" transform="translate(423.443 1248.97)" fill="#333"/>
    <path id="Path_79" data-name="Path 79" d="M366.42,158.88H389.8v18.706a11.689,11.689,0,0,1-11.669,11.689h0a11.689,11.689,0,0,1-11.689-11.689V158.88Z" transform="translate(78.761 1153.997)" opacity="0.1"/>
    <path id="Path_80" data-name="Path 80" d="M368.666,157.58h18.919a2.232,2.232,0,0,1,2.232,2.232v16.473a11.689,11.689,0,0,1-11.669,11.689h0a11.689,11.689,0,0,1-11.689-11.689v-16.48A2.232,2.232,0,0,1,368.666,157.58Z" transform="translate(78.748 1154.431)" fill="#be7c5e"/>
    <path id="Path_81" data-name="Path 81" d="M575.77,242.506a33.653,33.653,0,0,0,23.384.067V239.7H575.77Z" transform="translate(-130.542 1079.201)" opacity="0.1"/>
    <circle id="Ellipse_65" data-name="Ellipse 65" cx="33.513" cy="33.513" r="33.513" transform="translate(423.443 1256.24)" fill="#be7c5e"/>
    <path id="Path_82" data-name="Path 82" d="M545.3,164.729h63.907s-5.458-25.8-29.615-24.157S545.3,164.729,545.3,164.729Z" transform="translate(-120.377 1112.296)" fill="#333"/>
    <ellipse id="Ellipse_66" data-name="Ellipse 66" cx="3.119" cy="5.844" rx="3.119" ry="5.844" transform="translate(421.017 1282.483)" fill="#be7c5e"/>
    <ellipse id="Ellipse_67" data-name="Ellipse 67" cx="3.119" cy="5.844" rx="3.119" ry="5.844" transform="translate(486.484 1282.483)" fill="#be7c5e"/>
    <path id="Path_83" data-name="Path 83" d="M545.3,166.029h63.907s-5.458-25.8-29.615-24.157S545.3,166.029,545.3,166.029Z" transform="translate(-120.377 1111.862)" opacity="0.1"/>
    <circle id="Ellipse_68" data-name="Ellipse 68" cx="77.229" cy="77.229" r="77.229" transform="translate(564.412 1207)" fill="url(#linear-gradient)"/>
    <circle id="Ellipse_69" data-name="Ellipse 69" cx="75.596" cy="75.596" r="75.596" transform="translate(566.191 1208.133)" fill="#f5f5f5"/>
    <path id="Path_84" data-name="Path 84" d="M849.1,286.535A75.243,75.243,0,0,0,890.656,274.1c-2.792-15.227-13.388-16.1-13.388-16.1h-58.45s-10,.82-13.128,14.827A75.249,75.249,0,0,0,849.1,286.535Z" transform="translate(-207.245 1073.096)"/>
    <circle id="Ellipse_70" data-name="Ellipse 70" cx="36.492" cy="36.492" r="36.492" transform="translate(604.569 1245.644)" fill="#72351c"/>
    <path id="Path_85" data-name="Path 85" d="M642.68,158.36h23.384v18.706a11.689,11.689,0,0,1-11.689,11.709h0a11.689,11.689,0,0,1-11.689-11.689V158.36Z" transform="translate(-13.401 1154.17)" opacity="0.1"/>
    <path id="Path_86" data-name="Path 86" d="M644.886,157.06H663.8a2.232,2.232,0,0,1,2.232,2.232v16.473a11.689,11.689,0,0,1-11.689,11.689h0a11.689,11.689,0,0,1-11.689-11.689V159.292a2.232,2.232,0,0,1,2.232-2.232Z" transform="translate(-13.394 1154.604)" fill="#fda57d"/>
    <path id="Path_87" data-name="Path 87" d="M852,241.986a33.653,33.653,0,0,0,23.384.067V239.18H852Z" transform="translate(-222.694 1079.375)" opacity="0.1"/>
    <circle id="Ellipse_71" data-name="Ellipse 71" cx="33.513" cy="33.513" r="33.513" transform="translate(607.548 1255.9)" fill="#fda57d"/>
    <path id="Path_88" data-name="Path 88" d="M833.82,145.477s14.121,28.655,53.978,12l-9.276-14.547-16.44-5.9Z" transform="translate(-216.629 1113.456)" opacity="0.1"/>
    <path id="Path_89" data-name="Path 89" d="M833.82,144.847s14.121,28.655,53.978,12l-9.276-14.547-16.44-5.9Z" transform="translate(-216.629 1113.666)" fill="#72351c"/>
    <path id="Path_90" data-name="Path 90" d="M833.28,134.591a19.358,19.358,0,0,1,4.8-7.8c6.591-6.517,17.4-7.89,22.944-15.327a4.338,4.338,0,0,1-2,6.118c5.331-.033,11.469-.5,14.467-4.871a9.936,9.936,0,0,1-1.673,10.489c4.7.213,9.729,3.405,10.036,8.11.2,3.132-1.759,6.1-4.338,7.9a23.851,23.851,0,0,1-8.75,3.272C859.823,144.473,827.442,152.743,833.28,134.591Z" transform="translate(-216.216 1121.983)" fill="#72351c"/>
    <path id="Path_91" data-name="Path 91" d="M886.386,195.89H885.5l-17.286,15.4c-16.66-7.8-28.882,0-28.882,0l-18.126-14.754-1.826.227a33.511,33.511,0,1,0,67.017-.86Zm-33.56,21.291c-6.517,0-11.8-1.333-11.8-2.952s5.284-2.952,11.8-2.952,11.8,1.333,11.8,2.952-5.285,2.952-11.809,2.952Z" transform="translate(-211.812 1093.816)" fill="#72351c"/>
    <ellipse id="Ellipse_72" data-name="Ellipse 72" cx="3.119" cy="5.844" rx="3.119" ry="5.844" transform="translate(604.416 1283.536)" fill="#fda57d"/>
    <ellipse id="Ellipse_73" data-name="Ellipse 73" cx="3.119" cy="5.844" rx="3.119" ry="5.844" transform="translate(671.449 1283.536)" fill="#fda57d"/>
    <circle id="Ellipse_74" data-name="Ellipse 74" cx="77.229" cy="77.229" r="77.229" transform="translate(201 1374.159)" fill="url(#linear-gradient)"/>
    <circle id="Ellipse_75" data-name="Ellipse 75" cx="75.596" cy="75.596" r="75.596" transform="translate(202.779 1375.298)" fill="#f5f5f5"/>
    <path id="Path_92" data-name="Path 92" d="M303.742,537.378a75.243,75.243,0,0,0,41.55-12.435c-2.786-15.22-13.388-16.093-13.388-16.093H273.428s-10,.82-13.128,14.827a75.248,75.248,0,0,0,43.442,13.7Z" transform="translate(-25.3 989.412)"/>
    <circle id="Ellipse_76" data-name="Ellipse 76" cx="36.492" cy="36.492" r="36.492" transform="translate(241.15 1412.81)" fill="#333"/>
    <path id="Path_93" data-name="Path 93" d="M97.34,409.21h23.384v18.706A11.689,11.689,0,0,1,109.035,439.6h0a11.689,11.689,0,0,1-11.689-11.689V409.21Z" transform="translate(168.527 1070.486)" opacity="0.1"/>
    <path id="Path_94" data-name="Path 94" d="M99.572,407.907h18.919a2.232,2.232,0,0,1,2.232,2.232v16.487a11.689,11.689,0,0,1-11.689,11.689h0a11.689,11.689,0,0,1-11.7-11.689V410.132a2.232,2.232,0,0,1,2.232-2.232Z" transform="translate(168.527 1070.923)" fill="#fdb797"/>
    <path id="Path_95" data-name="Path 95" d="M306.69,492.826a33.653,33.653,0,0,0,23.384.067V490H306.69Z" transform="translate(-40.776 995.7)" opacity="0.1"/>
    <circle id="Ellipse_77" data-name="Ellipse 77" cx="33.513" cy="33.513" r="33.513" transform="translate(244.129 1423.066)" fill="#fdb797"/>
    <path id="Path_96" data-name="Path 96" d="M288.48,396.317s14.121,28.655,53.978,12l-9.276-14.547-16.44-5.9Z" transform="translate(-34.702 1029.774)" opacity="0.1"/>
    <path id="Path_97" data-name="Path 97" d="M288.48,395.687s14.121,28.655,53.978,12l-9.276-14.547-16.44-5.9Z" transform="translate(-34.702 1029.985)" fill="#333"/>
    <path id="Path_98" data-name="Path 98" d="M287.94,385.421a19.359,19.359,0,0,1,4.8-7.8c6.591-6.517,17.4-7.89,22.944-15.327a4.338,4.338,0,0,1-2,6.118c5.331-.033,11.469-.5,14.467-4.871a9.936,9.936,0,0,1-1.673,10.489c4.7.213,9.729,3.405,10.036,8.11.2,3.132-1.759,6.1-4.338,7.9a24.167,24.167,0,0,1-8.756,3.3C314.476,395.317,282.1,403.587,287.94,385.421Z" transform="translate(-34.288 1038.305)" fill="#333"/>
    <ellipse id="Ellipse_78" data-name="Ellipse 78" cx="3.119" cy="5.844" rx="3.119" ry="5.844" transform="translate(240.997 1450.701)" fill="#fdb797"/>
    <ellipse id="Ellipse_79" data-name="Ellipse 79" cx="3.119" cy="5.844" rx="3.119" ry="5.844" transform="translate(308.03 1450.701)" fill="#fdb797"/>
    <circle id="Ellipse_80" data-name="Ellipse 80" cx="77.229" cy="77.229" r="77.229" transform="translate(567.291 1382.722)" fill="url(#linear-gradient)"/>
    <circle id="Ellipse_81" data-name="Ellipse 81" cx="75.596" cy="75.596" r="75.596" transform="translate(568.924 1383.935)" fill="#f5f5f5"/>
    <path id="Path_99" data-name="Path 99" d="M853.416,550.228a75.243,75.243,0,0,0,41.556-12.435c-2.786-15.221-13.388-16.094-13.388-16.094H823.128s-10,.82-13.128,14.827a75.25,75.25,0,0,0,43.416,13.7Z" transform="translate(-208.683 985.125)"/>
    <path id="Path_100" data-name="Path 100" d="M647,422.06h23.384v18.706A11.689,11.689,0,0,1,658.7,452.454h0A11.689,11.689,0,0,1,647,440.766Z" transform="translate(-14.842 1066.199)" opacity="0.1"/>
    <path id="Path_101" data-name="Path 101" d="M649.232,420.76h18.919a2.232,2.232,0,0,1,2.232,2.232v16.473A11.689,11.689,0,0,1,658.7,451.154h0A11.689,11.689,0,0,1,647,439.466V422.992a2.233,2.233,0,0,1,2.232-2.232Z" transform="translate(-14.842 1066.633)" fill="#fdb797"/>
    <path id="Path_102" data-name="Path 102" d="M856.35,505.686a33.653,33.653,0,0,0,23.384.067V502.88H856.35Z" transform="translate(-224.145 991.403)" opacity="0.1"/>
    <circle id="Ellipse_82" data-name="Ellipse 82" cx="33.513" cy="33.513" r="33.513" transform="translate(610.42 1431.629)" fill="#fdb797"/>
    <ellipse id="Ellipse_83" data-name="Ellipse 83" cx="3.119" cy="5.844" rx="3.119" ry="5.844" transform="translate(607.995 1457.865)" fill="#fdb797"/>
    <ellipse id="Ellipse_84" data-name="Ellipse 84" cx="3.119" cy="5.844" rx="3.119" ry="5.844" transform="translate(673.461 1457.865)" fill="#fdb797"/>
    <rect id="Rectangle_342" data-name="Rectangle 342" width="14.334" height="7.17" rx="3.585" transform="translate(623.515 1465.302)" fill="none" stroke="#333" stroke-miterlimit="10" stroke-width="2"/>
    <rect id="Rectangle_343" data-name="Rectangle 343" width="14.334" height="7.17" rx="3.585" transform="translate(664.358 1472.465) rotate(180)" fill="none" stroke="#333" stroke-miterlimit="10" stroke-width="2"/>
    <path id="Path_103" data-name="Path 103" d="M864,459.881s4.545-2.466,12.995,0" transform="translate(-226.697 1006.113)" fill="none" stroke="#333" stroke-miterlimit="10" stroke-width="2"/>
    <path id="Path_104" data-name="Path 104" d="M908.72,422.7l8.223,19.106S927,429.131,908.72,422.7Z" transform="translate(-241.616 1018.152)" fill="#858585"/>
    <line id="Line_1" data-name="Line 1" y1="10.962" x2="12.275" transform="translate(664.358 1457.925)" fill="none" stroke="#333" stroke-linecap="round" stroke-linejoin="round" stroke-width="2"/>
    <path id="Path_105" data-name="Path 105" d="M833.7,422.7l-8.223,19.106S815.423,429.131,833.7,422.7Z" transform="translate(-212.926 1018.152)" fill="#858585"/>
    <line id="Line_2" data-name="Line 2" x1="12.442" y1="10.962" transform="translate(611.073 1457.925)" fill="none" stroke="#333" stroke-linecap="round" stroke-linejoin="round" stroke-width="2"/>
  </g>
</svg>
