<svg xmlns="http://www.w3.org/2000/svg" width="2062.845" height="1030" viewBox="0 0 2062.845 1030">
  <path id="dc-hero-bg" d="M83-694.928H535.4q162.182,0,286.664,61.885t193.481,174.275q69,112.39,69,261.768t-69,261.768q-69,112.39-193.481,174.275T535.4,300.928H83ZM524.022,111.715q149.378,0,238.294-83.225T851.232-197q0-142.265-88.916-225.49T524.022-505.716H313.47V111.715ZM1734.7,318q-152.224,0-275.283-66.153T1265.935,68.325Q1195.514-49.044,1195.514-197t70.421-265.325q70.421-117.369,193.481-183.522T1736.122-712q129.461,0,234.026,45.525t175.7,130.884L1997.89-399.017Q1896.881-515.674,1747.5-515.674q-92.472,0-165.028,40.545t-113.1,113.1Q1428.829-289.472,1428.829-197t40.546,165.028q40.546,72.555,113.1,113.1T1747.5,121.674q149.379,0,250.387-118.08l147.956,136.575q-71.132,86.782-176.409,132.307T1734.7,318Z" transform="translate(-83 712)" fill="#f5f5f5" opacity="0.11"/>
</svg>
